"La Tortura" (English: The Torture) is a Latin pop-reggaeton song performed by singers Shakira and Alejandro Sanz. It was recorded for Shakira's sixth studio album Fijación Oral Vol. 1, released on June 7, 2005. The song achieved large-scale success on different radio and chart formats, becoming the most famous Spanish language track of both singers worldwide and the sixth most successful song in Shakira's career behind "Hips Don't Lie", "Whenever Wherever", "Underneath Your Clothes", "She Wolf", and "Waka Waka (This Time For Africa)" and the most successful song ever for Alejandro Sanz. The song won two Latin Grammy Awards at the 2006 Ceremony for Song of the Year and Record of the Year. The song was number 1 on the Hot Latin Songs for 25 weeks during 2005, and was the biggest selling song of the year on that chart.

"La Tortura" is currently the highest-selling only-Spanish language digital track in United States at over 1,000,000 downloads and the biggest-selling Spanish language track of the decade with sales of over 5 million copies worldwide.

Torrent Info:

Video:
ID                               : 1
Format                           : AVC
Format/Info                      : Advanced Video Codec
Format profile                   : High@L4.1
Format settings, CABAC           : Yes
Format settings, ReFrames        : 4 frames
Codec ID                         : V_MPEG4/ISO/AVC
Duration                         : 3mn 44s
Bit rate                         : 6 144 Kbps
Width                            : 1 920 pixels
Height                           : 1 080 pixels
Display aspect ratio             : 16:9
Frame rate                       : 29.970 fps
Color space                      : YUV
Chroma subsampling               : 4:2:0
Bit depth                        : 8 bits
Scan type                        : Progressive
Bits/(Pixel*Frame)               : 0.099
Stream size                      : 160 MiB (92%)
Language                         : English

Audio:
ID                               : 2
Format                           : AC-3
Format/Info                      : Audio Coding 3
Mode extension                   : CM (complete main)
Codec ID                         : A_AC3
Duration                         : 3mn 44s
Bit rate mode                    : Constant
Bit rate                         : 384 Kbps
Channel(s)                       : 2 channels
Channel positions                : Front: L R
Sampling rate                    : 48.0 KHz
Bit depth                        : 16 bits
Compression mode                 : Lossy
Stream size                      : 10.3 MiB (6%)
Language                         : English


Screens:

[link]http://img1.imagehousing.com/100/f59471cddbe22871a65dcb91abff35bc.jpg[/link]

[link]http://img1.imagehousing.com/75/a0b19f7d2fb5f567ab0c6563a2b93693.jpg[/link]

[link]http://img1.imagehousing.com/4/709d3686ab73f63a98c081476965aaa2.jpg[/link]

[link]http://img1.imagehousing.com/72/416df19e37c0fc604f749757d0ab9919.jpg[/link]


Plz Seed To Keep It Alive!
And Comment if like.